<svg xmlns="http://www.w3.org/2000/svg" xmlns:xlink="http://www.w3.org/1999/xlink" width="1920" zoomAndPan="magnify" viewBox="0 0 1440 299.999988" height="400" preserveAspectRatio="xMidYMid meet" version="1.0"><defs><clipPath id="951419b9bd"><path d="M 0 32.070312 L 1440 32.070312 L 1440 300 L 0 300 Z M 0 32.070312 " clip-rule="nonzero"/></clipPath><clipPath id="534374a93d"><path d="M 0 38.082031 L 1440 38.082031 L 1440 300 L 0 300 Z M 0 38.082031 " clip-rule="nonzero"/></clipPath></defs><rect x="-144" width="1728" fill="#ffffff" y="-29.999999" height="359.999986" fill-opacity="1"/><rect x="-144" width="1728" fill="#ffffff" y="-29.999999" height="359.999986" fill-opacity="1"/><rect x="-144" width="1728" fill="#ffc353" y="-29.999999" height="359.999986" fill-opacity="1"/><path fill="#ffffff" d="M 1532.703125 322.128906 C 1532.703125 500.027344 1168.363281 644.25 718.953125 644.25 C 269.53125 644.25 -94.796875 500.027344 -94.796875 322.128906 C -94.796875 144.222656 269.53125 0 718.953125 0 C 1168.375 0 1532.703125 144.222656 1532.703125 322.128906 " fill-opacity="1" fill-rule="nonzero"/><g clip-path="url(#951419b9bd)"><path fill="#023764" d="M 1499.992188 320.824219 C 1499.992188 480.289062 1150.597656 609.566406 719.617188 609.566406 C 288.628906 609.566406 -60.757812 480.289062 -60.757812 320.824219 C -60.757812 161.347656 288.628906 32.070312 719.617188 32.070312 C 1150.609375 32.070312 1499.992188 161.347656 1499.992188 320.824219 " fill-opacity="1" fill-rule="nonzero"/></g><g clip-path="url(#534374a93d)"><path fill="#ffffff" d="M 1449.019531 320.835938 C 1449.019531 476.984375 1122.625 603.578125 720.019531 603.578125 C 317.402344 603.578125 -8.980469 476.984375 -8.980469 320.835938 C -8.980469 164.675781 317.402344 38.082031 720.019531 38.082031 C 1122.632812 38.082031 1449.019531 164.675781 1449.019531 320.835938 " fill-opacity="1" fill-rule="nonzero"/></g></svg>